<svg id="svg" version="1.1" xmlns="http://www.w3.org/2000/svg" xmlns:xlink="http://www.w3.org/1999/xlink" width="400" height="425" viewBox="0, 0, 400,425"><g id="svgg"><path id="path0" d="M97.875 36.618 C 89.308 37.817,80.355 43.105,76.276 49.375 C 75.919 49.925,75.503 50.506,75.352 50.666 C 75.202 50.826,74.925 51.333,74.737 51.791 C 74.550 52.250,74.250 52.775,74.071 52.958 C 73.892 53.141,73.803 53.384,73.874 53.499 C 73.945 53.613,73.918 53.745,73.814 53.791 C 72.634 54.314,70.636 61.091,70.251 65.875 C 69.930 69.863,69.928 329.999,70.249 334.125 C 70.571 338.253,72.183 344.475,72.828 344.077 C 72.968 343.990,72.999 344.049,72.900 344.210 C 72.649 344.615,74.107 347.449,76.062 350.355 C 77.407 352.356,82.176 357.082,82.662 356.895 C 82.862 356.819,82.961 356.861,82.882 356.989 C 82.569 357.495,87.815 360.550,91.000 361.718 C 93.289 362.558,96.379 363.251,98.944 363.501 C 102.451 363.842,297.649 363.830,301.036 363.489 C 307.437 362.843,312.915 360.591,318.188 356.437 C 319.054 355.755,319.678 355.086,319.587 354.939 C 319.495 354.790,319.540 354.745,319.689 354.837 C 319.835 354.927,320.653 354.242,321.506 353.313 C 325.373 349.107,327.891 344.180,329.302 338.061 L 329.863 335.625 329.943 202.750 C 329.997 112.634,329.939 68.708,329.763 66.250 C 329.409 61.302,327.981 56.239,326.082 53.192 C 325.762 52.680,325.500 52.195,325.500 52.116 C 325.500 51.510,322.535 47.699,322.217 47.896 C 322.101 47.967,322.063 47.876,322.134 47.693 C 322.312 47.227,318.806 43.880,316.344 42.166 C 311.697 38.932,306.587 37.037,301.056 36.499 C 297.067 36.111,100.675 36.226,97.875 36.618 M302.111 47.130 C 304.652 47.655,306.535 48.335,308.475 49.430 C 309.382 49.942,310.237 50.327,310.375 50.285 C 310.512 50.243,310.548 50.285,310.454 50.379 C 310.264 50.569,313.266 53.160,313.563 53.062 C 313.666 53.028,313.722 53.087,313.688 53.193 C 313.653 53.299,314.034 53.890,314.533 54.505 C 316.856 57.370,318.323 60.446,319.020 63.913 C 319.689 67.239,319.784 331.805,319.118 335.627 C 318.506 339.133,316.851 342.708,314.590 345.405 C 314.000 346.108,313.598 346.773,313.696 346.882 C 313.795 346.991,313.749 347.009,313.596 346.921 C 313.442 346.833,313.105 346.998,312.846 347.286 C 310.571 349.821,305.472 352.406,301.573 353.002 C 300.415 353.179,267.783 353.240,199.000 353.193 L 98.125 353.125 95.875 352.423 C 88.368 350.081,82.494 343.683,80.985 336.205 C 80.257 332.597,80.345 65.672,81.075 63.011 C 81.628 60.997,82.578 58.833,83.785 56.837 C 84.296 55.991,84.639 55.222,84.545 55.128 C 84.452 55.035,84.493 54.996,84.638 55.042 C 84.992 55.154,86.537 53.375,86.307 53.121 C 86.207 53.010,86.251 52.991,86.404 53.079 C 86.558 53.167,86.895 53.002,87.154 52.714 C 89.317 50.304,94.476 47.626,98.125 47.017 C 100.668 46.593,300.046 46.704,302.111 47.130 M151.375 66.230 C 150.963 66.493,149.849 67.505,148.901 68.479 C 146.915 70.520,147.152 70.454,145.020 69.563 L 143.375 68.875 126.500 68.875 L 109.625 68.875 108.190 69.454 C 104.980 70.751,102.509 73.311,101.447 76.439 C 100.793 78.366,100.418 105.494,100.985 109.875 C 101.584 114.502,104.568 118.040,109.125 119.524 C 110.462 119.960,139.698 120.161,142.355 119.754 C 146.996 119.041,150.710 115.671,151.729 111.250 C 152.177 109.304,152.086 78.613,151.628 77.102 C 151.042 75.171,151.132 74.756,152.441 73.375 C 155.673 69.962,155.750 69.850,155.750 68.535 C 155.750 66.201,153.380 64.952,151.375 66.230 M143.157 74.050 C 143.558 74.451,143.502 74.568,142.211 76.050 C 137.440 81.528,130.781 90.559,126.230 97.723 C 125.050 99.580,125.067 99.585,123.622 96.875 C 118.621 87.492,117.924 86.793,115.332 88.563 C 113.722 89.661,113.726 90.843,115.352 93.875 C 115.941 94.975,116.905 96.775,117.494 97.875 C 118.083 98.975,118.971 100.550,119.467 101.375 C 119.963 102.200,120.376 102.931,120.384 103.000 C 120.424 103.359,121.517 105.203,121.857 105.485 C 122.073 105.664,122.253 105.994,122.256 106.218 C 122.269 107.204,123.686 108.250,125.007 108.250 C 126.321 108.250,127.050 107.583,128.750 104.828 C 129.644 103.379,130.960 101.279,131.676 100.160 C 132.391 99.041,133.122 97.845,133.301 97.503 C 133.479 97.162,133.794 96.696,134.000 96.469 C 134.206 96.242,135.162 94.909,136.125 93.507 C 138.286 90.359,142.553 84.709,144.241 82.761 C 144.933 81.961,145.500 81.247,145.500 81.173 C 145.500 81.015,146.989 79.500,147.144 79.500 C 147.387 79.500,147.236 109.665,146.989 110.556 C 146.580 112.027,145.277 113.546,143.766 114.313 L 142.410 115.000 126.413 115.000 L 110.415 115.000 109.021 114.213 C 107.409 113.303,107.188 113.067,106.364 111.375 L 105.755 110.125 105.763 94.375 C 105.770 82.050,105.843 78.426,106.099 77.709 C 106.706 76.011,108.253 74.549,110.179 73.856 C 111.765 73.286,142.575 73.467,143.157 74.050 M173.250 94.250 L 173.250 96.250 236.250 96.250 L 299.250 96.250 299.250 94.250 L 299.250 92.250 236.250 92.250 L 173.250 92.250 173.250 94.250 M151.375 137.230 C 150.963 137.493,149.849 138.505,148.901 139.479 C 146.915 141.520,147.152 141.454,145.020 140.563 L 143.375 139.875 126.500 139.875 L 109.625 139.875 108.190 140.454 C 104.980 141.751,102.509 144.311,101.447 147.439 C 100.793 149.366,100.418 176.494,100.985 180.875 C 101.584 185.502,104.568 189.040,109.125 190.524 C 110.462 190.960,139.698 191.161,142.355 190.754 C 146.996 190.041,150.710 186.671,151.729 182.250 C 152.177 180.304,152.086 149.613,151.628 148.102 C 151.042 146.171,151.132 145.756,152.441 144.375 C 155.673 140.962,155.750 140.850,155.750 139.535 C 155.750 137.201,153.380 135.952,151.375 137.230 M143.157 145.050 C 143.558 145.451,143.502 145.568,142.211 147.050 C 137.440 152.528,130.781 161.559,126.230 168.723 C 125.050 170.580,125.067 170.585,123.622 167.875 C 118.621 158.492,117.924 157.793,115.332 159.563 C 113.722 160.661,113.726 161.843,115.352 164.875 C 115.941 165.975,116.905 167.775,117.494 168.875 C 118.083 169.975,118.971 171.550,119.467 172.375 C 119.963 173.200,120.376 173.931,120.384 174.000 C 120.424 174.359,121.517 176.203,121.857 176.485 C 122.073 176.664,122.253 176.994,122.256 177.218 C 122.269 178.204,123.686 179.250,125.007 179.250 C 126.321 179.250,127.050 178.583,128.750 175.828 C 129.644 174.379,130.960 172.279,131.676 171.160 C 132.391 170.041,133.122 168.845,133.301 168.503 C 133.479 168.162,133.794 167.696,134.000 167.469 C 134.206 167.242,135.162 165.909,136.125 164.507 C 138.286 161.359,142.553 155.709,144.241 153.761 C 144.933 152.961,145.500 152.247,145.500 152.173 C 145.500 152.015,146.989 150.500,147.144 150.500 C 147.387 150.500,147.236 180.665,146.989 181.556 C 146.580 183.027,145.277 184.546,143.766 185.313 L 142.410 186.000 126.413 186.000 L 110.415 186.000 109.021 185.213 C 107.409 184.303,107.188 184.067,106.364 182.375 L 105.755 181.125 105.763 165.375 C 105.770 153.050,105.843 149.426,106.099 148.709 C 106.706 147.011,108.253 145.549,110.179 144.856 C 111.765 144.286,142.575 144.467,143.157 145.050 M173.250 165.250 L 173.250 167.250 236.250 167.250 L 299.250 167.250 299.250 165.250 L 299.250 163.250 236.250 163.250 L 173.250 163.250 173.250 165.250 M151.375 208.230 C 150.963 208.493,149.849 209.505,148.901 210.479 C 146.915 212.520,147.152 212.454,145.020 211.563 L 143.375 210.875 126.500 210.875 L 109.625 210.875 108.190 211.454 C 104.980 212.751,102.509 215.311,101.447 218.439 C 100.793 220.366,100.418 247.494,100.985 251.875 C 101.584 256.502,104.568 260.040,109.125 261.524 C 110.462 261.960,139.698 262.161,142.355 261.754 C 146.996 261.041,150.710 257.671,151.729 253.250 C 152.177 251.304,152.086 220.613,151.628 219.102 C 151.042 217.171,151.132 216.756,152.441 215.375 C 155.673 211.962,155.750 211.850,155.750 210.535 C 155.750 208.201,153.380 206.952,151.375 208.230 M143.157 216.050 C 143.558 216.451,143.502 216.568,142.211 218.050 C 137.440 223.528,130.781 232.559,126.230 239.723 C 125.050 241.580,125.067 241.585,123.622 238.875 C 118.621 229.492,117.924 228.793,115.332 230.563 C 113.722 231.661,113.726 232.843,115.352 235.875 C 115.941 236.975,116.905 238.775,117.494 239.875 C 118.083 240.975,118.971 242.550,119.467 243.375 C 119.963 244.200,120.376 244.931,120.384 245.000 C 120.424 245.359,121.517 247.203,121.857 247.485 C 122.073 247.664,122.253 247.994,122.256 248.218 C 122.269 249.204,123.686 250.250,125.007 250.250 C 126.321 250.250,127.050 249.583,128.750 246.828 C 129.644 245.379,130.960 243.279,131.676 242.160 C 132.391 241.041,133.122 239.845,133.301 239.503 C 133.479 239.162,133.794 238.696,134.000 238.469 C 134.206 238.242,135.162 236.909,136.125 235.507 C 138.286 232.359,142.553 226.709,144.241 224.761 C 144.933 223.961,145.500 223.247,145.500 223.173 C 145.500 223.015,146.989 221.500,147.144 221.500 C 147.387 221.500,147.236 251.665,146.989 252.556 C 146.580 254.027,145.277 255.546,143.766 256.313 L 142.410 257.000 126.413 257.000 L 110.415 257.000 109.021 256.213 C 107.409 255.303,107.188 255.067,106.364 253.375 L 105.755 252.125 105.763 236.375 C 105.770 224.050,105.843 220.426,106.099 219.709 C 106.706 218.011,108.253 216.549,110.179 215.856 C 111.765 215.286,142.575 215.467,143.157 216.050 M173.250 236.250 L 173.250 238.250 236.250 238.250 L 299.250 238.250 299.250 236.250 L 299.250 234.250 236.250 234.250 L 173.250 234.250 173.250 236.250 M151.375 279.230 C 150.963 279.493,149.849 280.505,148.901 281.479 C 146.915 283.520,147.152 283.454,145.020 282.563 L 143.375 281.875 126.500 281.875 L 109.625 281.875 108.190 282.454 C 104.980 283.751,102.509 286.311,101.447 289.439 C 100.793 291.366,100.418 318.494,100.985 322.875 C 101.584 327.502,104.568 331.040,109.125 332.524 C 110.462 332.960,139.698 333.161,142.355 332.754 C 146.996 332.041,150.710 328.671,151.729 324.250 C 152.177 322.304,152.086 291.613,151.628 290.102 C 151.042 288.171,151.132 287.756,152.441 286.375 C 155.673 282.962,155.750 282.850,155.750 281.535 C 155.750 279.201,153.380 277.952,151.375 279.230 M142.414 286.559 C 142.197 286.697,142.197 286.743,142.417 286.746 C 142.578 286.748,142.906 286.825,143.146 286.917 C 143.467 287.041,143.528 286.997,143.377 286.754 C 143.244 286.538,143.270 286.483,143.450 286.594 C 143.872 286.855,143.547 287.477,142.129 289.125 C 137.174 294.888,130.721 303.654,126.230 310.723 C 125.050 312.580,125.067 312.585,123.622 309.875 C 119.064 301.323,118.822 301.000,116.965 301.000 C 115.426 301.000,113.816 302.694,114.233 303.875 C 114.281 304.012,114.312 304.324,114.300 304.568 C 114.289 304.812,114.374 304.953,114.489 304.882 C 114.604 304.811,114.764 304.927,114.846 305.139 C 114.931 305.362,114.889 305.461,114.745 305.372 C 114.603 305.284,114.620 305.490,114.785 305.851 C 114.943 306.199,115.187 306.414,115.325 306.329 C 115.464 306.243,115.503 306.292,115.413 306.439 C 115.201 306.782,115.487 307.538,115.764 307.367 C 115.880 307.295,116.111 307.492,116.278 307.805 C 116.563 308.340,116.554 308.352,116.122 308.000 C 115.459 307.459,116.377 308.933,117.109 309.584 C 117.393 309.837,117.484 309.971,117.313 309.882 C 116.931 309.685,116.916 309.876,117.263 310.523 C 117.407 310.793,117.631 310.949,117.760 310.869 C 117.892 310.787,117.923 310.911,117.830 311.153 C 117.719 311.442,117.759 311.524,117.955 311.403 C 118.150 311.282,118.191 311.364,118.080 311.653 C 117.969 311.942,118.009 312.024,118.205 311.903 C 118.400 311.782,118.441 311.864,118.330 312.153 C 118.209 312.467,118.254 312.527,118.496 312.377 C 118.714 312.243,118.767 312.269,118.652 312.456 C 118.438 312.802,118.941 313.816,119.236 313.633 C 119.353 313.562,119.514 313.677,119.596 313.889 C 119.688 314.130,119.642 314.213,119.472 314.108 C 119.285 313.992,119.289 314.105,119.484 314.470 C 119.640 314.761,119.883 315.000,120.024 315.000 C 120.164 315.000,120.214 315.106,120.134 315.235 C 120.055 315.364,120.189 315.585,120.432 315.727 C 120.702 315.884,120.747 315.988,120.548 315.992 C 120.368 315.997,120.291 316.114,120.378 316.254 C 120.464 316.394,120.657 316.433,120.806 316.340 C 120.965 316.242,121.006 316.289,120.903 316.454 C 120.739 316.720,121.367 318.250,121.640 318.250 C 121.710 318.250,121.647 318.025,121.500 317.750 C 121.353 317.475,121.290 317.250,121.361 317.250 C 121.597 317.250,122.432 319.121,122.327 319.415 C 122.270 319.574,122.359 319.788,122.525 319.891 C 122.730 320.017,122.762 319.972,122.625 319.750 C 122.487 319.527,122.520 319.483,122.728 319.612 C 122.897 319.716,122.974 319.957,122.901 320.148 C 122.718 320.625,123.997 321.250,125.154 321.250 C 125.665 321.250,126.006 321.173,125.913 321.079 C 125.819 320.985,126.066 320.772,126.463 320.605 C 127.091 320.341,130.888 314.730,133.250 310.577 C 133.456 310.214,133.794 309.723,134.000 309.486 C 134.206 309.250,135.162 307.908,136.125 306.504 C 137.088 305.101,138.994 302.473,140.362 300.664 C 142.561 297.757,143.443 296.647,146.205 293.318 C 146.574 292.874,147.021 292.508,147.198 292.505 C 147.657 292.498,147.508 322.164,147.042 323.556 C 146.529 325.089,145.243 326.564,143.766 327.313 L 142.410 328.000 126.413 328.000 L 110.415 328.000 109.021 327.213 C 107.409 326.303,107.188 326.067,106.364 324.375 L 105.755 323.125 105.754 307.500 C 105.753 297.352,105.845 291.544,106.015 290.930 C 106.306 289.883,108.275 287.339,108.718 287.438 C 108.873 287.472,109.000 287.381,109.000 287.235 C 109.000 287.090,109.112 287.040,109.250 287.125 C 109.388 287.210,109.500 287.154,109.500 287.000 C 109.500 286.846,109.612 286.790,109.750 286.875 C 109.888 286.960,110.000 286.921,110.000 286.788 C 110.000 286.655,110.243 286.610,110.539 286.688 C 110.836 286.765,111.015 286.727,110.938 286.602 C 110.855 286.467,117.263 286.375,126.750 286.375 C 135.524 286.375,142.572 286.458,142.414 286.559 M173.250 307.500 L 173.250 309.500 236.250 309.500 L 299.250 309.500 299.250 307.500 L 299.250 305.500 236.250 305.500 L 173.250 305.500 173.250 307.500 M124.500 320.821 C 124.824 320.942,124.822 320.963,124.485 320.980 C 124.271 320.991,123.877 320.825,123.610 320.611 C 123.133 320.229,123.133 320.226,123.625 320.452 C 123.900 320.579,124.294 320.745,124.500 320.821 " stroke="none" fill="#006400" fill-rule="evenodd"></path><path id="path1" d="M149.687 36.187 C 177.359 36.223,222.641 36.223,250.312 36.187 C 277.984 36.152,255.344 36.124,200.000 36.124 C 144.656 36.124,122.016 36.152,149.687 36.187 M95.500 36.635 C 91.270 37.535,86.632 39.543,83.305 41.914 C 81.434 43.248,77.500 46.921,77.500 47.335 C 77.500 47.481,78.316 46.773,79.313 45.762 C 84.030 40.977,90.530 37.637,97.125 36.611 C 98.425 36.408,98.775 36.298,98.125 36.295 C 97.575 36.292,96.394 36.445,95.500 36.635 M301.440 36.427 C 301.751 36.487,302.201 36.484,302.440 36.422 C 302.679 36.359,302.425 36.310,301.875 36.313 C 301.325 36.316,301.129 36.367,301.440 36.427 M304.875 36.911 C 311.742 38.848,316.513 41.523,320.730 45.799 C 321.703 46.786,322.500 47.476,322.500 47.331 C 322.500 46.898,318.474 43.170,316.534 41.808 C 313.441 39.635,308.024 37.264,305.319 36.897 C 304.800 36.827,304.600 36.833,304.875 36.911 M97.750 47.237 C 88.816 49.135,80.533 58.189,80.768 65.799 C 80.778 66.116,81.009 65.306,81.283 64.000 C 82.932 56.122,88.705 50.066,96.875 47.644 L 98.625 47.125 176.250 46.998 L 253.875 46.872 176.875 46.829 C 103.484 46.787,99.775 46.806,97.750 47.237 M269.831 46.937 C 275.445 46.975,284.557 46.975,290.081 46.937 C 295.605 46.900,291.012 46.869,279.875 46.869 C 268.738 46.869,264.218 46.900,269.831 46.937 M301.750 47.376 C 309.831 49.009,316.032 54.676,318.361 62.554 C 319.003 64.726,319.240 64.782,318.656 62.625 C 316.471 54.558,307.553 46.778,300.773 47.023 C 300.416 47.036,300.856 47.195,301.750 47.376 M76.250 48.750 C 75.804 49.313,75.491 49.824,75.553 49.886 C 75.615 49.949,76.034 49.542,76.483 48.983 C 76.933 48.424,77.246 47.913,77.180 47.847 C 77.114 47.781,76.696 48.187,76.250 48.750 M322.887 48.024 C 323.004 48.217,323.570 49.016,324.145 49.799 C 326.300 52.737,328.409 57.564,329.366 61.750 C 329.702 63.221,329.724 63.257,329.597 62.125 C 329.237 58.923,326.727 52.908,324.375 49.612 C 323.367 48.200,322.301 47.062,322.887 48.024 M74.261 51.768 C 73.178 53.800,73.388 53.860,74.543 51.849 C 75.048 50.969,75.373 50.250,75.265 50.250 C 75.158 50.250,74.706 50.933,74.261 51.768 M72.666 54.794 C 72.111 56.205,72.279 56.250,72.950 54.870 C 73.249 54.254,73.400 53.750,73.285 53.750 C 73.170 53.750,72.891 54.220,72.666 54.794 M71.283 58.562 C 70.868 59.858,70.464 61.527,70.386 62.272 C 70.272 63.360,70.339 63.209,70.726 61.500 C 70.991 60.331,71.442 58.710,71.729 57.896 C 72.016 57.083,72.203 56.370,72.145 56.311 C 72.086 56.253,71.698 57.265,71.283 58.562 M329.818 64.500 C 329.818 65.119,329.867 65.372,329.926 65.063 C 329.986 64.753,329.986 64.247,329.926 63.938 C 329.867 63.628,329.818 63.881,329.818 64.500 M70.068 64.750 C 70.068 65.369,70.117 65.622,70.176 65.313 C 70.236 65.003,70.236 64.497,70.176 64.188 C 70.117 63.878,70.068 64.131,70.068 64.750 M319.058 65.500 C 319.058 65.981,319.109 66.178,319.172 65.938 C 319.235 65.697,319.235 65.303,319.172 65.063 C 319.109 64.822,319.058 65.019,319.058 65.500 M151.366 65.738 C 151.085 65.852,149.989 66.873,148.929 68.007 L 147.002 70.069 145.438 69.347 L 143.875 68.625 126.875 68.616 L 109.875 68.606 126.750 68.741 L 143.625 68.875 145.341 69.591 L 147.058 70.307 149.216 68.165 C 150.404 66.987,151.656 65.912,152.000 65.777 C 152.344 65.642,152.456 65.532,152.250 65.532 C 152.044 65.532,151.646 65.625,151.366 65.738 M154.000 65.781 C 154.344 65.918,154.884 66.274,155.201 66.572 C 155.670 67.012,155.746 67.031,155.609 66.672 C 155.430 66.206,154.247 65.489,153.700 65.516 C 153.521 65.525,153.656 65.644,154.000 65.781 M69.872 102.875 C 69.872 122.950,69.901 131.199,69.937 121.207 C 69.974 111.215,69.974 94.790,69.937 84.707 C 69.901 74.624,69.872 82.800,69.872 102.875 M330.124 158.500 C 330.124 209.169,330.152 229.897,330.187 204.563 C 330.223 179.228,330.223 137.772,330.187 112.438 C 330.152 87.103,330.124 107.831,330.124 158.500 M319.374 199.875 C 319.374 273.163,319.403 303.181,319.437 266.583 C 319.472 229.985,319.472 170.022,319.437 133.333 C 319.403 96.644,319.374 126.588,319.374 199.875 M80.624 200.125 C 80.624 273.413,80.653 303.431,80.687 266.833 C 80.722 230.235,80.722 170.272,80.687 133.583 C 80.653 96.894,80.624 126.838,80.624 200.125 M155.921 68.948 C 155.773 69.831,155.397 70.385,153.801 72.073 C 152.734 73.202,151.711 74.350,151.526 74.625 C 151.341 74.900,152.211 74.073,153.459 72.787 C 155.647 70.533,156.403 69.297,156.194 68.315 C 156.143 68.073,156.020 68.358,155.921 68.948 M107.863 69.201 C 104.166 70.749,101.308 74.145,100.880 77.500 C 100.761 78.432,100.814 78.344,101.185 76.987 C 102.186 73.336,105.170 70.275,108.875 69.101 C 109.425 68.926,109.650 68.782,109.375 68.781 C 109.100 68.779,108.420 68.969,107.863 69.201 M108.887 74.568 C 105.762 76.338,105.743 76.460,105.809 94.500 L 105.866 109.875 105.995 94.125 C 106.115 79.627,106.161 78.303,106.574 77.473 C 107.147 76.323,108.347 75.094,109.485 74.492 C 109.975 74.234,110.263 74.019,110.125 74.015 C 109.987 74.011,109.430 74.260,108.887 74.568 M142.926 74.162 C 143.105 74.234,142.106 75.617,140.456 77.579 C 135.954 82.934,128.115 93.739,125.371 98.373 C 125.114 98.806,124.936 98.525,121.796 92.750 C 119.769 89.022,119.398 88.460,118.737 88.118 C 118.345 87.916,117.879 87.754,117.700 87.760 C 117.521 87.765,117.724 87.922,118.151 88.107 C 119.146 88.540,119.407 88.929,122.511 94.604 C 124.667 98.546,125.141 99.259,125.361 98.894 C 128.640 93.442,135.758 83.658,141.094 77.271 C 143.313 74.614,143.675 73.970,142.923 74.020 C 142.696 74.035,142.697 74.069,142.926 74.162 M151.274 75.375 C 151.265 75.513,151.420 76.075,151.618 76.625 C 151.816 77.175,151.978 77.400,151.978 77.125 C 151.977 76.608,151.303 74.931,151.274 75.375 M152.068 78.750 C 152.068 79.369,152.117 79.622,152.176 79.313 C 152.236 79.003,152.236 78.497,152.176 78.188 C 152.117 77.878,152.068 78.131,152.068 78.750 M144.724 82.313 C 139.330 88.809,130.333 101.692,128.008 106.250 C 127.332 107.575,128.280 106.259,129.822 103.731 C 133.941 96.979,139.665 88.921,144.625 82.894 L 146.875 80.159 147.003 94.767 L 147.131 109.375 147.191 94.563 C 147.223 86.416,147.160 79.750,147.051 79.750 C 146.941 79.750,145.894 80.903,144.724 82.313 M152.115 98.000 C 152.115 104.119,152.147 106.622,152.187 103.563 C 152.227 100.503,152.227 95.497,152.187 92.438 C 152.147 89.378,152.115 91.881,152.115 98.000 M115.077 88.270 C 113.194 89.476,114.029 94.182,116.558 96.625 C 116.701 96.763,116.183 95.682,115.409 94.224 C 113.562 90.748,113.675 89.052,115.817 88.121 C 116.262 87.928,116.456 87.767,116.250 87.764 C 116.044 87.761,115.516 87.989,115.077 88.270 M100.607 93.875 C 100.607 96.900,100.643 98.103,100.687 96.549 C 100.731 94.994,100.731 92.519,100.686 91.049 C 100.642 89.578,100.606 90.850,100.607 93.875 M116.750 97.099 C 116.750 97.209,118.050 99.641,119.639 102.505 C 122.427 107.528,123.174 108.512,124.179 108.490 C 124.465 108.484,124.356 108.361,123.875 108.149 C 122.923 107.729,122.554 107.284,121.372 105.125 C 120.845 104.162,120.226 103.037,119.997 102.625 C 119.769 102.213,119.041 100.862,118.381 99.625 C 117.193 97.399,116.750 96.713,116.750 97.099 M127.122 107.504 C 126.871 107.781,126.319 108.108,125.895 108.231 C 125.459 108.358,125.325 108.465,125.586 108.477 C 126.151 108.505,127.438 107.772,127.609 107.326 C 127.784 106.870,127.651 106.919,127.122 107.504 M151.939 110.500 C 151.416 114.536,147.908 118.434,143.724 119.626 C 142.622 119.940,142.551 119.989,143.338 119.892 C 147.662 119.359,152.665 113.671,152.201 109.815 C 152.145 109.354,152.059 109.580,151.939 110.500 M106.005 110.196 C 105.994 110.880,107.256 112.909,108.108 113.574 C 109.968 115.028,109.660 115.005,126.594 114.942 L 142.125 114.884 126.250 114.755 C 107.555 114.602,108.226 114.733,106.467 110.875 C 106.216 110.325,106.009 110.019,106.005 110.196 M146.020 111.711 C 145.464 112.800,144.366 113.758,142.989 114.356 C 142.514 114.562,142.271 114.735,142.450 114.740 C 143.730 114.779,147.297 111.464,146.661 110.828 C 146.592 110.758,146.303 111.156,146.020 111.711 M101.117 112.125 C 101.830 115.715,106.934 120.112,110.227 119.973 C 110.657 119.954,110.512 119.874,109.794 119.732 C 106.147 119.015,103.147 116.474,101.558 112.756 C 101.216 111.957,101.030 111.691,101.117 112.125 M118.688 120.187 C 122.984 120.226,130.016 120.226,134.313 120.187 C 138.609 120.149,135.094 120.118,126.500 120.118 C 117.906 120.118,114.391 120.149,118.688 120.187 M151.366 136.738 C 151.085 136.852,149.989 137.873,148.929 139.007 L 147.002 141.069 145.438 140.347 L 143.875 139.625 126.875 139.616 L 109.875 139.606 126.750 139.741 L 143.625 139.875 145.341 140.591 L 147.058 141.307 149.216 139.165 C 150.404 137.987,151.656 136.912,152.000 136.777 C 152.344 136.642,152.456 136.532,152.250 136.532 C 152.044 136.532,151.646 136.625,151.366 136.738 M154.000 136.781 C 154.344 136.918,154.884 137.274,155.201 137.572 C 155.670 138.012,155.746 138.031,155.609 137.672 C 155.430 137.206,154.247 136.489,153.700 136.516 C 153.521 136.525,153.656 136.644,154.000 136.781 M155.921 139.948 C 155.773 140.831,155.397 141.385,153.801 143.073 C 152.734 144.202,151.711 145.350,151.526 145.625 C 151.341 145.900,152.211 145.073,153.459 143.787 C 155.647 141.533,156.403 140.297,156.194 139.315 C 156.143 139.073,156.020 139.358,155.921 139.948 M107.863 140.201 C 104.166 141.749,101.308 145.145,100.880 148.500 C 100.761 149.432,100.814 149.344,101.185 147.987 C 102.186 144.336,105.170 141.275,108.875 140.101 C 109.425 139.926,109.650 139.782,109.375 139.781 C 109.100 139.779,108.420 139.969,107.863 140.201 M69.872 180.750 C 69.872 202.544,69.901 211.459,69.937 200.562 C 69.974 189.666,69.974 171.834,69.937 160.937 C 69.901 150.041,69.872 158.956,69.872 180.750 M108.887 145.568 C 105.762 147.338,105.743 147.460,105.809 165.500 L 105.866 180.875 105.995 165.125 C 106.115 150.627,106.161 149.303,106.574 148.473 C 107.147 147.323,108.347 146.094,109.485 145.492 C 109.975 145.234,110.263 145.019,110.125 145.015 C 109.987 145.011,109.430 145.260,108.887 145.568 M142.926 145.162 C 143.105 145.234,142.106 146.617,140.456 148.579 C 135.954 153.934,128.115 164.739,125.371 169.373 C 125.114 169.806,124.936 169.525,121.796 163.750 C 119.769 160.022,119.398 159.460,118.737 159.118 C 118.345 158.916,117.879 158.754,117.700 158.760 C 117.521 158.765,117.724 158.922,118.151 159.107 C 119.146 159.540,119.407 159.929,122.511 165.604 C 124.667 169.546,125.141 170.259,125.361 169.894 C 128.640 164.442,135.758 154.658,141.094 148.271 C 143.313 145.614,143.675 144.970,142.923 145.020 C 142.696 145.035,142.697 145.069,142.926 145.162 M151.274 146.375 C 151.265 146.512,151.420 147.075,151.618 147.625 C 151.816 148.175,151.978 148.400,151.978 148.125 C 151.977 147.608,151.303 145.931,151.274 146.375 M152.068 149.750 C 152.068 150.369,152.117 150.622,152.176 150.313 C 152.236 150.003,152.236 149.497,152.176 149.188 C 152.117 148.878,152.068 149.131,152.068 149.750 M144.724 153.313 C 139.330 159.809,130.333 172.692,128.008 177.250 C 127.332 178.575,128.280 177.259,129.822 174.731 C 133.941 167.979,139.665 159.921,144.625 153.894 L 146.875 151.159 147.003 165.767 L 147.131 180.375 147.191 165.563 C 147.223 157.416,147.160 150.750,147.051 150.750 C 146.941 150.750,145.894 151.903,144.724 153.313 M152.115 169.000 C 152.115 175.119,152.147 177.622,152.187 174.563 C 152.227 171.503,152.227 166.497,152.187 163.438 C 152.147 160.378,152.115 162.881,152.115 169.000 M115.077 159.270 C 113.194 160.476,114.029 165.182,116.558 167.625 C 116.701 167.762,116.183 166.682,115.409 165.224 C 113.562 161.748,113.675 160.052,115.817 159.121 C 116.262 158.928,116.456 158.767,116.250 158.764 C 116.044 158.761,115.516 158.989,115.077 159.270 M100.607 164.875 C 100.607 167.900,100.643 169.103,100.687 167.549 C 100.731 165.994,100.731 163.519,100.686 162.049 C 100.642 160.578,100.606 161.850,100.607 164.875 M173.080 166.875 C 173.132 167.372,173.316 167.375,202.003 167.377 L 230.875 167.378 202.081 167.313 C 174.932 167.252,173.279 167.223,173.157 166.811 C 173.058 166.474,173.040 166.488,173.080 166.875 M254.188 167.437 C 262.472 167.474,276.028 167.474,284.313 167.437 C 292.597 167.401,285.819 167.371,269.250 167.371 C 252.681 167.371,245.903 167.401,254.188 167.437 M116.750 168.099 C 116.750 168.209,118.050 170.641,119.639 173.505 C 122.427 178.528,123.174 179.512,124.179 179.490 C 124.465 179.484,124.356 179.361,123.875 179.149 C 122.923 178.729,122.554 178.284,121.372 176.125 C 120.845 175.162,120.226 174.037,119.997 173.625 C 119.769 173.213,119.041 171.863,118.381 170.625 C 117.193 168.399,116.750 167.713,116.750 168.099 M127.122 178.504 C 126.871 178.781,126.319 179.108,125.895 179.231 C 125.459 179.358,125.325 179.465,125.586 179.477 C 126.151 179.505,127.438 178.772,127.609 178.326 C 127.784 177.870,127.651 177.919,127.122 178.504 M151.939 181.500 C 151.416 185.536,147.908 189.434,143.724 190.626 C 142.622 190.940,142.551 190.989,143.338 190.892 C 147.662 190.359,152.665 184.671,152.201 180.815 C 152.145 180.354,152.059 180.580,151.939 181.500 M106.005 181.196 C 105.994 181.880,107.256 183.909,108.108 184.574 C 109.968 186.028,109.660 186.005,126.594 185.942 L 142.125 185.884 126.250 185.755 C 107.555 185.602,108.226 185.733,106.467 181.875 C 106.216 181.325,106.009 181.019,106.005 181.196 M146.020 182.711 C 145.464 183.800,144.366 184.758,142.989 185.356 C 142.514 185.562,142.271 185.735,142.450 185.740 C 143.730 185.779,147.297 182.464,146.661 181.828 C 146.592 181.758,146.303 182.156,146.020 182.711 M101.117 183.125 C 101.830 186.715,106.934 191.112,110.227 190.973 C 110.657 190.954,110.512 190.874,109.794 190.732 C 106.147 190.015,103.147 187.474,101.558 183.756 C 101.216 182.957,101.030 182.691,101.117 183.125 M118.688 191.187 C 122.984 191.226,130.016 191.226,134.313 191.187 C 138.609 191.149,135.094 191.118,126.500 191.118 C 117.906 191.118,114.391 191.149,118.688 191.187 M151.366 207.738 C 151.085 207.852,149.989 208.873,148.929 210.007 L 147.002 212.069 145.438 211.347 L 143.875 210.625 126.875 210.616 L 109.875 210.606 126.750 210.741 L 143.625 210.875 145.341 211.591 L 147.058 212.307 149.216 210.165 C 150.404 208.987,151.656 207.912,152.000 207.777 C 152.344 207.642,152.456 207.532,152.250 207.532 C 152.044 207.532,151.646 207.625,151.366 207.738 M154.000 207.781 C 154.344 207.918,154.884 208.274,155.201 208.572 C 155.670 209.012,155.746 209.031,155.609 208.672 C 155.430 208.206,154.247 207.489,153.700 207.516 C 153.521 207.525,153.656 207.644,154.000 207.781 M155.921 210.948 C 155.773 211.831,155.397 212.385,153.801 214.073 C 152.734 215.202,151.711 216.350,151.526 216.625 C 151.341 216.900,152.211 216.073,153.459 214.787 C 155.647 212.533,156.403 211.297,156.194 210.315 C 156.143 210.073,156.020 210.358,155.921 210.948 M107.863 211.201 C 104.166 212.749,101.308 216.145,100.880 219.500 C 100.761 220.432,100.814 220.344,101.185 218.987 C 102.186 215.336,105.170 212.275,108.875 211.101 C 109.425 210.926,109.650 210.782,109.375 210.781 C 109.100 210.779,108.420 210.969,107.863 211.201 M108.887 216.568 C 105.762 218.338,105.743 218.460,105.809 236.500 L 105.866 251.875 105.995 236.125 C 106.115 221.627,106.161 220.303,106.574 219.473 C 107.147 218.323,108.347 217.094,109.485 216.492 C 109.975 216.234,110.263 216.019,110.125 216.015 C 109.987 216.011,109.430 216.260,108.887 216.568 M142.926 216.162 C 143.105 216.234,142.106 217.617,140.456 219.579 C 135.954 224.934,128.115 235.739,125.371 240.373 C 125.114 240.806,124.936 240.525,121.796 234.750 C 119.769 231.022,119.398 230.460,118.737 230.118 C 118.345 229.916,117.879 229.754,117.700 229.760 C 117.521 229.765,117.724 229.922,118.151 230.107 C 119.146 230.540,119.407 230.929,122.511 236.604 C 124.667 240.546,125.141 241.259,125.361 240.894 C 128.640 235.442,135.758 225.658,141.094 219.271 C 143.313 216.614,143.675 215.970,142.923 216.020 C 142.696 216.035,142.697 216.069,142.926 216.162 M151.274 217.375 C 151.265 217.512,151.420 218.075,151.618 218.625 C 151.816 219.175,151.978 219.400,151.978 219.125 C 151.977 218.608,151.303 216.931,151.274 217.375 M152.068 220.750 C 152.068 221.369,152.117 221.622,152.176 221.313 C 152.236 221.003,152.236 220.497,152.176 220.188 C 152.117 219.878,152.068 220.131,152.068 220.750 M144.724 224.313 C 139.330 230.809,130.333 243.692,128.008 248.250 C 127.332 249.575,128.280 248.259,129.822 245.731 C 133.941 238.979,139.665 230.921,144.625 224.894 L 146.875 222.159 147.003 236.767 L 147.131 251.375 147.191 236.563 C 147.223 228.416,147.160 221.750,147.051 221.750 C 146.941 221.750,145.894 222.903,144.724 224.313 M69.873 277.750 C 69.873 308.481,69.902 321.053,69.937 305.688 C 69.973 290.322,69.973 265.178,69.937 249.813 C 69.902 234.447,69.873 247.019,69.873 277.750 M152.115 240.000 C 152.115 246.119,152.147 248.622,152.187 245.563 C 152.227 242.503,152.227 237.497,152.187 234.438 C 152.147 231.378,152.115 233.881,152.115 240.000 M115.077 230.270 C 113.194 231.476,114.029 236.182,116.558 238.625 C 116.701 238.762,116.183 237.682,115.409 236.224 C 113.562 232.748,113.675 231.052,115.817 230.121 C 116.262 229.928,116.456 229.767,116.250 229.764 C 116.044 229.761,115.516 229.989,115.077 230.270 M100.607 235.875 C 100.607 238.900,100.643 240.103,100.687 238.549 C 100.731 236.994,100.731 234.519,100.686 233.049 C 100.642 231.578,100.606 232.850,100.607 235.875 M116.750 239.099 C 116.750 239.209,118.050 241.641,119.639 244.505 C 122.427 249.528,123.174 250.512,124.179 250.490 C 124.465 250.484,124.356 250.361,123.875 250.149 C 122.923 249.729,122.554 249.284,121.372 247.125 C 120.845 246.162,120.226 245.037,119.997 244.625 C 119.769 244.213,119.041 242.863,118.381 241.625 C 117.193 239.399,116.750 238.713,116.750 239.099 M127.122 249.504 C 126.871 249.781,126.319 250.108,125.895 250.231 C 125.459 250.358,125.325 250.465,125.586 250.477 C 126.151 250.505,127.438 249.772,127.609 249.326 C 127.784 248.870,127.651 248.919,127.122 249.504 M151.939 252.500 C 151.416 256.536,147.908 260.434,143.724 261.626 C 142.622 261.940,142.551 261.989,143.338 261.892 C 147.662 261.359,152.665 255.671,152.201 251.815 C 152.145 251.354,152.059 251.580,151.939 252.500 M106.005 252.196 C 105.994 252.880,107.256 254.909,108.108 255.574 C 109.968 257.028,109.660 257.005,126.594 256.942 L 142.125 256.884 126.250 256.755 C 107.555 256.602,108.226 256.733,106.467 252.875 C 106.216 252.325,106.009 252.019,106.005 252.196 M146.020 253.711 C 145.464 254.800,144.366 255.758,142.989 256.356 C 142.514 256.562,142.271 256.735,142.450 256.740 C 143.730 256.779,147.297 253.464,146.661 252.828 C 146.592 252.758,146.303 253.156,146.020 253.711 M101.117 254.125 C 101.830 257.715,106.934 262.112,110.227 261.973 C 110.657 261.954,110.512 261.874,109.794 261.732 C 106.147 261.015,103.147 258.474,101.558 254.756 C 101.216 253.957,101.030 253.691,101.117 254.125 M330.122 295.125 C 330.122 316.300,330.151 324.926,330.187 314.293 C 330.224 303.660,330.224 286.335,330.187 275.793 C 330.151 265.251,330.122 273.950,330.122 295.125 M118.688 262.187 C 122.984 262.226,130.016 262.226,134.313 262.187 C 138.609 262.149,135.094 262.118,126.500 262.118 C 117.906 262.118,114.391 262.149,118.688 262.187 M151.366 278.738 C 151.085 278.852,149.989 279.873,148.929 281.007 L 147.002 283.069 145.438 282.347 L 143.875 281.625 126.875 281.616 L 109.875 281.606 126.750 281.741 L 143.625 281.875 145.341 282.591 L 147.058 283.307 149.216 281.165 C 150.404 279.987,151.656 278.912,152.000 278.777 C 152.344 278.642,152.456 278.532,152.250 278.532 C 152.044 278.532,151.646 278.625,151.366 278.738 M154.000 278.781 C 154.344 278.918,154.884 279.274,155.201 279.572 C 155.670 280.012,155.746 280.031,155.609 279.672 C 155.430 279.206,154.247 278.489,153.700 278.516 C 153.521 278.525,153.656 278.644,154.000 278.781 M155.921 281.948 C 155.773 282.831,155.397 283.385,153.801 285.073 C 152.734 286.202,151.711 287.350,151.526 287.625 C 151.341 287.900,152.211 287.073,153.459 285.787 C 155.647 283.533,156.403 282.297,156.194 281.315 C 156.143 281.073,156.020 281.358,155.921 281.948 M107.863 282.201 C 104.166 283.749,101.308 287.145,100.880 290.500 C 100.761 291.432,100.814 291.344,101.185 289.987 C 102.186 286.336,105.170 283.275,108.875 282.101 C 109.425 281.926,109.650 281.782,109.375 281.781 C 109.100 281.779,108.420 281.969,107.863 282.201 M142.125 286.928 C 143.069 287.155,142.959 287.382,140.454 290.375 C 136.120 295.551,128.274 306.394,125.621 310.873 C 125.364 311.306,125.186 311.025,122.046 305.250 C 120.019 301.522,119.648 300.960,118.987 300.618 C 118.595 300.416,118.129 300.254,117.950 300.260 C 117.771 300.265,117.963 300.417,118.375 300.596 C 119.091 300.908,120.008 301.750,119.633 301.750 C 119.534 301.750,119.168 301.525,118.818 301.250 C 118.469 300.975,118.001 300.754,117.779 300.760 C 117.551 300.765,117.702 300.932,118.125 301.142 C 119.624 301.886,120.095 302.226,120.411 302.795 C 120.809 303.513,120.836 303.832,120.479 303.612 C 120.330 303.520,120.390 303.795,120.611 304.222 C 120.832 304.650,121.070 305.000,121.140 305.000 C 121.210 305.000,121.142 304.765,120.989 304.479 C 120.835 304.192,120.767 303.900,120.836 303.830 C 120.906 303.761,121.140 304.046,121.357 304.464 C 121.813 305.346,121.851 305.592,121.498 305.374 C 121.354 305.285,121.373 305.496,121.541 305.866 C 121.714 306.244,121.906 306.402,122.003 306.246 C 122.094 306.098,122.524 306.645,122.959 307.461 C 123.793 309.025,123.908 309.377,123.503 309.127 C 123.358 309.038,123.321 309.144,123.413 309.383 C 123.529 309.687,123.619 309.713,123.760 309.483 C 123.887 309.278,124.127 309.518,124.476 310.202 C 125.069 311.364,125.120 311.604,124.725 311.360 C 124.552 311.253,124.566 311.407,124.764 311.776 C 125.058 312.326,125.095 312.335,125.352 311.909 C 128.675 306.391,135.750 296.668,141.110 290.251 C 143.617 287.250,143.784 286.686,142.140 286.779 C 141.638 286.807,141.637 286.811,142.125 286.928 M107.869 288.289 C 105.770 290.132,105.883 289.101,105.812 307.000 C 105.771 317.500,105.833 322.748,105.996 322.500 C 106.151 322.264,106.244 316.482,106.246 306.904 C 106.250 289.893,106.215 290.275,107.946 288.568 C 109.213 287.319,109.166 287.150,107.869 288.289 M151.274 288.375 C 151.265 288.512,151.420 289.075,151.618 289.625 C 151.816 290.175,151.978 290.400,151.978 290.125 C 151.977 289.608,151.303 287.931,151.274 288.375 M152.068 291.750 C 152.068 292.369,152.117 292.622,152.176 292.313 C 152.236 292.003,152.236 291.497,152.176 291.188 C 152.117 290.878,152.068 291.131,152.068 291.750 M146.510 293.079 C 146.200 293.576,146.207 293.594,146.583 293.284 C 146.966 292.967,147.001 294.007,147.063 307.659 L 147.129 322.375 147.190 307.577 C 147.249 293.063,147.198 291.974,146.510 293.079 M144.182 295.938 C 140.531 300.252,134.558 308.581,130.960 314.375 C 128.210 318.804,127.947 319.250,128.087 319.250 C 128.157 319.250,128.749 318.378,129.403 317.313 C 134.237 309.433,140.758 300.225,145.069 295.188 C 145.746 294.397,146.240 293.750,146.167 293.750 C 146.094 293.750,145.201 294.734,144.182 295.938 M152.115 311.000 C 152.115 317.119,152.147 319.622,152.187 316.563 C 152.227 313.503,152.227 308.497,152.187 305.438 C 152.147 302.378,152.115 304.881,152.115 311.000 M115.333 300.766 C 114.897 301.045,114.419 301.622,114.270 302.049 C 113.879 303.172,113.936 303.233,114.506 302.298 C 114.783 301.844,115.373 301.314,115.817 301.121 C 116.262 300.928,116.456 300.757,116.250 300.742 C 115.994 300.724,116.033 300.647,116.375 300.500 C 116.704 300.358,116.747 300.281,116.500 300.272 C 116.294 300.264,115.769 300.487,115.333 300.766 M100.607 306.875 C 100.607 309.900,100.643 311.103,100.687 309.549 C 100.731 307.994,100.731 305.519,100.686 304.049 C 100.642 302.578,100.606 303.850,100.607 306.875 M115.412 307.688 C 115.475 307.928,115.752 308.406,116.028 308.750 C 116.512 309.354,116.511 309.340,116.009 308.313 C 115.467 307.204,115.215 306.940,115.412 307.688 M120.759 317.375 C 120.760 317.512,120.991 317.906,121.272 318.250 C 121.612 318.665,121.697 318.707,121.525 318.375 C 121.104 317.560,120.758 317.107,120.759 317.375 M127.098 320.389 C 126.317 321.254,126.283 321.497,127.022 320.930 C 127.366 320.666,128.142 319.476,127.946 319.514 C 127.907 319.521,127.525 319.915,127.098 320.389 M122.389 320.320 C 122.566 320.784,124.171 321.663,124.407 321.427 C 124.504 321.329,124.404 321.250,124.186 321.250 C 123.967 321.250,123.442 320.958,123.018 320.602 C 122.595 320.245,122.311 320.119,122.389 320.320 M151.939 323.500 C 151.416 327.536,147.908 331.434,143.724 332.626 C 142.622 332.940,142.551 332.989,143.338 332.892 C 147.662 332.359,152.665 326.671,152.201 322.815 C 152.145 322.354,152.059 322.580,151.939 323.500 M106.255 322.667 C 106.252 322.828,106.183 323.165,106.101 323.417 C 106.001 323.727,106.025 323.775,106.178 323.564 C 106.337 323.344,106.559 323.576,106.940 324.360 C 107.272 325.044,107.375 325.500,107.211 325.555 C 107.056 325.606,107.116 325.785,107.353 325.982 C 107.709 326.277,107.739 326.263,107.588 325.869 C 107.391 325.356,107.766 325.503,108.632 326.279 C 109.979 327.486,110.266 327.504,126.844 327.442 L 142.375 327.384 126.500 327.255 C 107.805 327.102,108.476 327.233,106.717 323.375 C 106.466 322.825,106.259 322.506,106.255 322.667 M146.414 323.870 C 145.903 325.116,144.878 326.101,143.404 326.764 C 142.655 327.100,142.540 327.225,142.904 327.306 C 143.503 327.440,144.520 326.941,144.983 326.285 C 145.180 326.005,145.417 325.824,145.510 325.881 C 145.756 326.033,147.050 323.560,146.955 323.118 C 146.911 322.913,146.667 323.251,146.414 323.870 M101.117 325.125 C 101.830 328.715,106.934 333.112,110.227 332.973 C 110.657 332.954,110.512 332.874,109.794 332.732 C 106.147 332.015,103.147 329.474,101.558 325.756 C 101.216 324.957,101.030 324.691,101.117 325.125 M108.396 326.785 C 108.602 327.117,110.000 327.792,110.285 327.697 C 110.424 327.650,110.025 327.377,109.399 327.089 C 108.773 326.801,108.322 326.664,108.396 326.785 M117.063 327.935 C 117.991 327.983,119.509 327.983,120.438 327.935 C 121.366 327.887,120.606 327.848,118.750 327.848 C 116.894 327.848,116.134 327.887,117.063 327.935 M124.938 327.933 C 125.522 327.986,126.478 327.986,127.063 327.933 C 127.647 327.880,127.169 327.837,126.000 327.837 C 124.831 327.837,124.353 327.880,124.938 327.933 M128.690 327.927 C 129.001 327.987,129.451 327.984,129.690 327.922 C 129.929 327.859,129.675 327.810,129.125 327.813 C 128.575 327.816,128.379 327.867,128.690 327.927 M133.938 327.936 C 135.072 327.982,136.928 327.982,138.063 327.936 C 139.197 327.890,138.269 327.852,136.000 327.852 C 133.731 327.852,132.803 327.890,133.938 327.936 M118.688 333.187 C 122.984 333.226,130.016 333.226,134.313 333.187 C 138.609 333.149,135.094 333.118,126.500 333.118 C 117.906 333.118,114.391 333.149,118.688 333.187 M80.808 334.500 C 80.808 334.981,80.859 335.178,80.922 334.938 C 80.985 334.697,80.985 334.303,80.922 334.063 C 80.859 333.822,80.808 334.019,80.808 334.500 M318.678 336.044 C 317.189 343.749,311.290 349.935,303.125 352.356 L 301.375 352.875 200.625 353.001 L 99.875 353.127 199.875 353.185 C 296.650 353.242,299.948 353.228,302.125 352.777 C 310.585 351.022,317.027 344.720,318.881 336.382 C 319.108 335.365,319.255 334.352,319.209 334.131 C 319.163 333.911,318.924 334.771,318.678 336.044 M329.818 335.250 C 329.818 335.869,329.867 336.122,329.926 335.813 C 329.986 335.503,329.986 334.997,329.926 334.688 C 329.867 334.378,329.818 334.631,329.818 335.250 M70.068 335.500 C 70.068 336.119,70.117 336.372,70.176 336.063 C 70.236 335.753,70.236 335.247,70.176 334.938 C 70.117 334.628,70.068 334.881,70.068 335.500 M81.016 335.750 C 80.826 342.642,92.028 353.238,99.227 352.977 C 99.584 352.964,99.144 352.805,98.250 352.624 C 90.169 350.991,83.968 345.324,81.639 337.446 C 81.302 336.307,81.022 335.544,81.016 335.750 M329.393 337.791 C 327.781 349.943,316.119 361.210,302.875 363.410 C 300.957 363.729,300.940 363.738,302.447 363.624 C 311.811 362.918,321.946 355.781,326.636 346.590 C 328.271 343.386,330.355 336.500,329.689 336.500 C 329.621 336.500,329.487 337.081,329.393 337.791 M70.403 337.875 C 70.841 341.769,75.115 350.960,77.042 352.151 C 77.408 352.377,77.196 352.028,75.855 350.201 C 73.700 347.263,71.591 342.436,70.634 338.250 C 70.298 336.779,70.276 336.743,70.403 337.875 M77.500 352.686 C 77.500 353.106,81.565 356.857,83.466 358.192 C 86.559 360.365,91.976 362.736,94.681 363.103 C 95.200 363.173,95.400 363.167,95.125 363.089 C 88.280 361.158,83.541 358.506,79.271 354.219 C 78.297 353.241,77.500 352.551,77.500 352.686 M97.690 363.677 C 98.001 363.737,98.451 363.734,98.690 363.672 C 98.929 363.609,98.675 363.560,98.125 363.563 C 97.575 363.566,97.379 363.617,97.690 363.677 M149.687 363.937 C 177.359 363.973,222.641 363.973,250.312 363.937 C 277.984 363.902,255.344 363.874,200.000 363.874 C 144.656 363.874,122.016 363.902,149.687 363.937 " stroke="none" fill="#848484" fill-rule="evenodd"></path><path id="path2" d="M118.670 73.687 C 122.544 73.726,128.957 73.726,132.920 73.687 C 136.883 73.649,133.713 73.617,125.875 73.617 C 118.037 73.617,114.795 73.649,118.670 73.687 M152.058 80.500 C 152.058 80.981,152.109 81.178,152.172 80.938 C 152.235 80.697,152.235 80.303,152.172 80.063 C 152.109 79.822,152.058 80.019,152.058 80.500 M152.087 85.000 C 152.087 86.169,152.130 86.647,152.183 86.063 C 152.236 85.478,152.236 84.522,152.183 83.938 C 152.130 83.353,152.087 83.831,152.087 85.000 M118.562 144.687 C 122.516 144.726,128.984 144.726,132.937 144.687 C 136.891 144.649,133.656 144.617,125.750 144.617 C 117.844 144.617,114.609 144.649,118.562 144.687 M152.058 151.500 C 152.058 151.981,152.109 152.178,152.172 151.938 C 152.235 151.697,152.235 151.303,152.172 151.063 C 152.109 150.822,152.058 151.019,152.058 151.500 M152.087 156.000 C 152.087 157.169,152.130 157.647,152.183 157.063 C 152.236 156.478,152.236 155.522,152.183 154.938 C 152.130 154.353,152.087 154.831,152.087 156.000 M118.670 215.687 C 122.544 215.726,128.957 215.726,132.920 215.687 C 136.883 215.649,133.713 215.617,125.875 215.617 C 118.037 215.617,114.795 215.649,118.670 215.687 M152.058 222.500 C 152.058 222.981,152.109 223.178,152.172 222.938 C 152.235 222.697,152.235 222.303,152.172 222.063 C 152.109 221.822,152.058 222.019,152.058 222.500 M152.087 227.000 C 152.087 228.169,152.130 228.647,152.183 228.063 C 152.236 227.478,152.236 226.522,152.183 225.938 C 152.130 225.353,152.087 225.831,152.087 227.000 M118.562 286.687 C 122.516 286.726,128.984 286.726,132.937 286.687 C 136.891 286.649,133.656 286.617,125.750 286.617 C 117.844 286.617,114.609 286.649,118.562 286.687 M152.058 293.500 C 152.058 293.981,152.109 294.178,152.172 293.938 C 152.235 293.697,152.235 293.303,152.172 293.063 C 152.109 292.822,152.058 293.019,152.058 293.500 M152.087 298.000 C 152.087 299.169,152.130 299.647,152.183 299.063 C 152.236 298.478,152.236 297.522,152.183 296.938 C 152.130 296.353,152.087 296.831,152.087 298.000 " stroke="none" fill="#646464" fill-rule="evenodd"></path><path id="path3" d="M122.438 327.926 C 122.747 327.986,123.253 327.986,123.563 327.926 C 123.872 327.867,123.619 327.818,123.000 327.818 C 122.381 327.818,122.128 327.867,122.438 327.926 M130.438 327.926 C 130.747 327.986,131.253 327.986,131.563 327.926 C 131.872 327.867,131.619 327.818,131.000 327.818 C 130.381 327.818,130.128 327.867,130.438 327.926 " stroke="none" fill="#535453" fill-rule="evenodd"></path><path id="path4" d="M147.367 307.000 C 147.367 315.044,147.399 318.334,147.437 314.313 C 147.476 310.291,147.476 303.709,147.437 299.688 C 147.399 295.666,147.367 298.956,147.367 307.000 M121.467 317.688 C 121.595 317.928,121.708 318.212,121.716 318.318 C 121.746 318.699,122.235 319.379,122.242 319.050 C 122.251 318.677,121.551 317.250,121.360 317.250 C 121.290 317.250,121.338 317.447,121.467 317.688 M123.333 320.615 C 123.333 320.812,123.489 320.893,123.708 320.809 C 123.971 320.708,124.021 320.763,123.877 320.996 C 123.741 321.216,123.769 321.268,123.961 321.149 C 124.353 320.907,124.327 320.809,123.792 320.522 C 123.452 320.341,123.333 320.365,123.333 320.615 " stroke="none" fill="#3c3c3c" fill-rule="evenodd"></path></g></svg>